<?xml version="1.0" encoding="utf-8"?>
<!-- Generator: Adobe Illustrator 16.0.4, SVG Export Plug-In . SVG Version: 6.00 Build 0)  -->
<!DOCTYPE svg PUBLIC "-//W3C//DTD SVG 1.1//EN" "http://www.w3.org/Graphics/SVG/1.1/DTD/svg11.dtd">
<svg version="1.1" id="Layer_1" xmlns="http://www.w3.org/2000/svg" xmlns:xlink="http://www.w3.org/1999/xlink" x="0px" y="0px"
	 width="198.779px" height="254.434px" viewBox="0 0 198.779 254.434" enable-background="new 0 0 198.779 254.434"
	 xml:space="preserve">
<path fill="#FFFFFF" d="M39.659,237.448l1.097,16.561h120.493l0.223-3.348c0.38-5.745,0.762-11.488,1.142-17.233l36.166-10.903
	v-9.053c0-31.312-15.353-60.151-41.464-78.645c3.479-5.734,6.328-11.939,8.513-18.553c5.004-1.258,9.549-3.969,13.161-7.918
	c4.854-5.307,7.439-12.237,7.281-19.551c-0.001-0.045-0.003-0.09-0.006-0.136c0.009-0.215,0.012-0.435,0.007-0.667
	c-0.158-7.278-3.04-14.091-8.121-19.191c-2.831-2.834-6.146-4.953-9.787-6.272C160.097,25.998,132.171,0,100.335,0
	C67.293,0,39.127,27.184,31.716,65.381c-4.066,1.512-7.744,4.018-10.693,7.34c-4.752,5.35-7.236,12.275-7,19.513l0.001,0.103
	c-0.007,0.287-0.008,0.572,0.003,0.841c0.479,13.287,9.883,24.018,22.202,26.253c1.831,4.156,4.706,10.379,7.779,15.846
	C16.666,153.543,0,183.645,0,215.663v9.142l39.586,11.528C39.61,236.705,39.635,237.076,39.659,237.448z"/>
<path fill="none" d="M37.645,219.146l0.792,0.229c-0.005-0.08-0.011-0.16-0.016-0.24L37.645,219.146z"/>
<path fill="#FFEEDE" d="M159.659,109.413c0.024,0,0.049-0.004,0.07-0.005l-0.005-0.231
	C159.703,109.256,159.681,109.334,159.659,109.413z"/>
<path fill="#FFEEDE" d="M24.795,181.003c-4.991,9.879-7.908,20.728-8.364,31.966l21.215,6.18l0.776-0.01
	c-0.659-9.969-1.318-19.938-1.979-29.906L24.795,181.003z"/>
<path fill="#FFEEDE" d="M176.32,183.652l-10.897,7.699c-0.42,6.332-0.838,12.664-1.256,18.996c-0.136,2.021-0.269,4.038-0.402,6.062
	l18.587-5.604C181.979,201.33,179.905,192.176,176.32,183.652z"/>
<path fill="#FFEEDE" d="M166.907,96.896c1.864-2.034,2.903-4.681,2.983-7.502c0.006-0.205,0.02-0.409,0.015-0.615
	c-0.062-3.049-1.254-5.885-3.344-7.979c-0.281-0.282-0.577-0.542-0.882-0.788c-0.947-0.766-2.002-1.343-3.117-1.729
	c0.015,0.2,0.023,0.402,0.037,0.604c0.006,0.085,0.011,0.17,0.016,0.256c0.134,2.028,0.22,4.072,0.22,6.142
	c0,5.041-0.408,9.966-1.166,14.738C163.649,99.548,165.462,98.479,166.907,96.896z"/>
<path fill="#FFEEDE" d="M37.903,81.819c0.003-0.072,0.002-0.146,0.005-0.22c0.009-0.209,0.019-0.417,0.027-0.625
	c-1.198,0.375-2.32,0.969-3.324,1.771c-0.479,0.382-0.935,0.801-1.354,1.272c-1.965,2.213-2.986,5.111-2.875,8.16
	c0.001,0.029,0.006,0.058,0.007,0.087c0.238,5.505,4.158,9.944,9.129,10.696c-1.092-5.68-1.688-11.593-1.688-17.677
	C37.833,84.12,37.862,82.968,37.903,81.819z"/>
<path fill="#FFEEDE" d="M100.335,16.793c-29.851,0-54.136,30.723-54.136,68.488c0,20.854,7.415,39.547,19.073,52.119
	c2.298,2.479,4.756,4.723,7.361,6.693c0.02,0.015,0.041,0.029,0.06,0.044c1.062,0.801,2.15,1.551,3.257,2.261
	c-0.358-0.737-0.682-1.493-0.968-2.268c-0.658-1.78-1.116-3.646-1.35-5.577c-0.118-0.976-0.186-1.967-0.186-2.972
	c0-4.404,1.168-8.555,3.222-12.193c0.822-1.46,1.79-2.836,2.881-4.113c2.815-3.296,6.461-5.934,10.638-7.618
	c3.307-1.334,6.943-2.075,10.76-2.075c5.345,0,10.333,1.454,14.56,3.958c3.129,1.853,5.834,4.284,7.951,7.134
	c0.35,0.471,0.689,0.95,1.008,1.444c2.525,3.93,3.981,8.54,3.981,13.465c0,2.043-0.259,4.027-0.729,5.937
	c-0.207,0.833-0.457,1.651-0.746,2.452c-0.152,0.424-0.316,0.843-0.491,1.257c0.522-0.367,1.042-0.745,1.555-1.133
	c0.061-0.044,0.118-0.084,0.178-0.128c2.541-1.938,4.938-4.142,7.187-6.565c11.657-12.571,19.071-31.267,19.071-52.12
	C154.467,47.516,130.183,16.793,100.335,16.793z"/>
<path fill="#FFEEDE" d="M114.554,122.714c-0.286-0.259-0.586-0.506-0.891-0.749c-3.421-2.724-7.857-4.383-12.719-4.383
	c-3.731,0-7.21,0.99-10.177,2.675c-1.505,0.854-2.874,1.89-4.073,3.078c-2.026,2.009-3.568,4.435-4.437,7.134
	c-0.522,1.623-0.813,3.336-0.813,5.113c0,3.082,0.847,5.982,2.33,8.521c3.297,5.639,9.756,9.479,17.17,9.479
	c7.459,0,13.946-3.891,17.227-9.584c1.445-2.515,2.273-5.376,2.273-8.416c0-2.065-0.396-4.041-1.094-5.891
	C118.35,127.028,116.697,124.645,114.554,122.714z"/>
<path fill="#B0ACB0" d="M42.712,174.58c0.019,0.278,0.037,0.559,0.056,0.838c0.186,2.812,0.371,5.622,0.558,8.434
	c0.132,1.979,0.262,3.955,0.394,5.937c0.019,0.293,0.039,0.586,0.058,0.879c0.086,1.312,0.173,2.622,0.26,3.934
	c0.54,8.148,1.079,16.301,1.617,24.449c0.056,0.826,0.109,1.653,0.164,2.479c0.196,2.963,0.393,5.926,0.588,8.888
	c0.136,2.051,0.271,4.103,0.407,6.148l0.652,9.861h107.072c0.415-6.29,0.832-12.582,1.249-18.873
	c0.197-2.973,0.395-5.943,0.592-8.917c0.021-0.327,0.043-0.655,0.063-0.98c0.189-2.871,0.38-5.743,0.57-8.615
	c0.271-4.104,0.543-8.213,0.812-12.318c0.129-1.942,0.26-3.891,0.389-5.836c0.021-0.292,0.039-0.585,0.059-0.877
	c0.089-1.345,0.179-2.688,0.269-4.031c0.231-3.521,0.467-7.037,0.697-10.557c0.02-0.277,0.037-0.562,0.057-0.838L42.712,174.58
	L42.712,174.58z M90.909,190.889c10.145,6.176,20.229,12.447,30.256,18.799c-0.242,0.127-0.484,0.254-0.729,0.381
	c-5.245,2.729-10.48,5.475-15.708,8.236c-3.93,2.076-7.853,4.166-11.768,6.271c-0.226,0.117-0.451,0.236-0.677,0.357
	c-0.331,0.178-0.664,0.354-0.993,0.529c-0.005-0.414-0.01-0.828-0.015-1.242c-0.003-0.281-0.006-0.562-0.009-0.844
	c-0.018-1.635-0.037-3.271-0.054-4.902c-0.097-8.914-0.192-17.828-0.294-26.742C90.916,191.451,90.914,191.17,90.909,190.889z"/>
<path fill="#FFFFFF" d="M140.909,144.145l0.088-0.149l0.635-1.097c-0.318,0.348-0.644,0.691-0.967,1.03
	c-10.896,11.346-24.971,18.208-40.33,18.208c-15,0-28.775-6.534-39.562-17.403c-13.308,7.043-24.161,17.104-31.806,28.976
	l6.764,4.778c0.131,1.978,0.262,3.955,0.394,5.934c0.02,0.293,0.039,0.586,0.058,0.879c0.087,1.312,0.174,2.622,0.26,3.933
	c0.66,9.972,1.32,19.938,1.979,29.906c0.005,0.079,0.011,0.159,0.016,0.239c0.196,2.962,0.393,5.924,0.588,8.886
	c0.212,3.203,0.424,6.406,0.636,9.609l1.095,16.561h120.493l0.223-3.348c0.564-8.587,1.138-17.174,1.705-25.761
	c0.172-2.587,0.343-5.176,0.515-7.764c0.024-0.387,0.051-0.771,0.076-1.153c0.135-2.021,0.268-4.04,0.399-6.062
	c0.42-6.332,0.838-12.664,1.256-18.996c0.129-1.942,0.258-3.891,0.388-5.834c0.021-0.293,0.038-0.586,0.059-0.877
	c0.092-1.347,0.18-2.688,0.27-4.033l6.478-4.575C165.47,163.147,154.66,152.097,140.909,144.145z M159.236,175.418
	c-0.231,3.52-0.466,7.036-0.696,10.555c-0.091,1.346-0.181,2.688-0.27,4.033c-0.021,0.292-0.038,0.585-0.058,0.877
	c-0.129,1.945-0.258,3.891-0.39,5.836c-0.271,4.105-0.544,8.213-0.813,12.318c-0.189,2.872-0.379,5.744-0.569,8.614
	c-0.021,0.328-0.043,0.656-0.064,0.981c-0.195,2.974-0.394,5.944-0.591,8.917c-0.417,6.291-0.834,12.583-1.249,18.873H47.464
	l-0.652-9.859c-0.136-2.053-0.271-4.103-0.407-6.15c-0.195-2.962-0.392-5.926-0.588-8.887c-0.055-0.826-0.108-1.653-0.164-2.479
	c-0.539-8.148-1.078-16.301-1.617-24.449c-0.086-1.312-0.173-2.623-0.26-3.934c-0.02-0.293-0.039-0.586-0.058-0.879
	c-0.131-1.979-0.262-3.956-0.394-5.935c-0.187-2.812-0.372-5.623-0.558-8.436c-0.019-0.279-0.037-0.562-0.056-0.838h116.581
	C159.274,174.859,159.257,175.139,159.236,175.418z"/>
<path id="playButton" fill="#FFFFFF" d="M90.92,191.732c0.103,8.914,0.198,17.828,0.294,26.74c0.018,1.635,0.037,3.271,0.054,4.902
	c0.003,0.281,0.006,0.562,0.009,0.844c0.004,0.414,0.009,0.828,0.015,1.242c0.331-0.178,0.664-0.354,0.993-0.527
	c0.226-0.121,0.451-0.24,0.677-0.359c3.916-2.104,7.838-4.192,11.768-6.271c5.228-2.764,10.463-5.51,15.708-8.235
	c0.243-0.125,0.483-0.254,0.729-0.379c-10.022-6.354-20.111-12.623-30.256-18.799C90.914,191.17,90.916,191.451,90.92,191.732z"/>
<polygon points="108.839,96.711 108.839,95.875 91.827,95.875 91.827,96.711 91.827,104.242 108.839,104.242 "/>
<path d="M75.844,85.281c-1.753,0-3.301,0.9-4.249,2.28c-0.612,0.892-0.977,1.979-0.977,3.159c0,3.002,2.341,5.438,5.226,5.438
	s5.228-2.437,5.228-5.438c0-1.18-0.363-2.268-0.977-3.159C79.146,86.183,77.597,85.281,75.844,85.281z"/>
<path d="M122.851,83.568c-2.094,0-3.896,1.285-4.729,3.138c-0.316,0.7-0.496,1.477-0.496,2.301c0,3.004,2.34,5.438,5.225,5.438
	c2.887,0,5.225-2.436,5.225-5.438c0-0.824-0.181-1.601-0.493-2.301C126.749,84.854,124.946,83.568,122.851,83.568z"/>
<rect id="rightBrow" x="62.448" y="62.487" transform="matrix(0.9974 -0.0714 0.0714 0.9974 -4.5678 5.5877)" width="26.815" height="8.369"/>
<rect x="111.396" y="63.405" transform="matrix(-0.9971 -0.0765 0.0765 -0.9971 244.0788 144.5265)" width="26.822" height="8.368"/>
<path d="M98.773,136.27c0.72,0.15,1.464,0.23,2.229,0.23c0.965,0,1.896-0.139,2.782-0.373c4.657-1.231,8.095-5.46,8.095-10.504
	h-1.347H90.124c0,0.014,0.002,0.026,0.002,0.041C90.144,130.889,93.848,135.244,98.773,136.27z"/>
<path d="M38.437,219.378l-0.792-0.229l-21.215-6.18c0.456-11.238,3.373-22.087,8.364-31.966l11.647,8.229
	c-0.086-1.312-0.173-2.623-0.26-3.935c-0.019-0.293-0.039-0.586-0.058-0.879c-0.132-1.979-0.262-3.956-0.394-5.936l-6.764-4.776
	c7.646-11.873,18.499-21.933,31.806-28.976c10.783,10.869,24.562,17.403,39.562,17.403c15.359,0,29.438-6.862,40.33-18.208
	c0.323-0.339,0.646-0.683,0.967-1.03l-0.635,1.097l-0.088,0.149c13.751,7.953,24.562,19.003,31.7,31.886l-6.479,4.576
	c-0.088,1.347-0.18,2.688-0.269,4.033c-0.021,0.291-0.039,0.584-0.061,0.877c-0.127,1.944-0.256,3.893-0.385,5.834l10.897-7.699
	c3.585,8.522,5.658,17.68,6.027,27.152l-18.584,5.604c-0.025,0.385-0.051,0.77-0.076,1.152c-0.172,2.588-0.342,5.176-0.514,7.765
	l27.603-8.321v-3.106c0-31.289-16.675-59.749-44.653-76.379c6.027-7.982,10.688-17.538,13.536-28.104
	c0.021-0.079,0.044-0.157,0.065-0.236l0.005,0.231l0.002,0.088c5.103-0.111,9.842-2.281,13.353-6.115
	c3.456-3.779,5.302-8.73,5.188-13.943c-0.002-0.075-0.015-0.147-0.017-0.224c0.002-0.205,0.021-0.407,0.017-0.612
	c-0.113-5.215-2.168-10.084-5.783-13.713c-3.036-3.041-6.854-4.89-10.982-5.384c-5.936-34.836-31.104-61.08-61.17-61.08
	c-30.86,0-56.551,27.649-61.59,63.855c-4.512,0.533-8.637,2.683-11.742,6.178c-3.402,3.83-5.173,8.811-4.982,14.02
	c0.001,0.031,0.006,0.062,0.008,0.092c0,0.249-0.017,0.495-0.008,0.744c0.385,10.601,8.84,18.972,18.994,18.972
	c0.223,0,0.447-0.007,0.67-0.015l-0.017-0.48c2.985,9.961,7.615,18.944,13.466,26.486c-29.136,16.181-47.132,45.77-47.132,77.812
	v3.14l31.023,9.035C38.83,225.302,38.633,222.34,38.437,219.378z M100.335,16.793c29.851,0,54.133,30.723,54.133,68.488
	c0,20.854-7.414,39.548-19.071,52.12c-2.247,2.424-4.646,4.626-7.187,6.565c-0.06,0.044-0.119,0.084-0.178,0.128
	c-0.513,0.388-1.029,0.766-1.555,1.133c0.175-0.414,0.339-0.833,0.491-1.257c0.291-0.801,0.539-1.619,0.746-2.452
	c0.474-1.908,0.729-3.894,0.729-5.937c0-4.925-1.456-9.535-3.979-13.465c-0.317-0.494-0.658-0.974-1.008-1.444
	c-2.119-2.85-4.824-5.281-7.951-7.134c-4.229-2.504-9.215-3.958-14.562-3.958c-3.815,0-7.453,0.739-10.76,2.075
	c-4.176,1.685-7.822,4.321-10.638,7.618c-1.091,1.277-2.059,2.653-2.881,4.113c-2.054,3.639-3.222,7.789-3.222,12.193
	c0,1.005,0.067,1.996,0.186,2.972c0.233,1.931,0.691,3.797,1.35,5.577c0.286,0.772,0.609,1.529,0.968,2.268
	c-1.106-0.71-2.194-1.459-3.257-2.261c-0.02-0.015-0.041-0.029-0.06-0.044c-2.604-1.971-5.063-4.215-7.361-6.693
	c-11.658-12.571-19.073-31.266-19.073-52.119C46.199,47.516,70.485,16.793,100.335,16.793z M81.447,135.582
	c0-1.777,0.291-3.491,0.813-5.113c0.868-2.699,2.41-5.125,4.437-7.134c1.199-1.188,2.567-2.224,4.073-3.078
	c2.967-1.685,6.445-2.675,10.177-2.675c4.859,0,9.298,1.66,12.718,4.383c0.305,0.243,0.604,0.489,0.891,0.749
	c2.145,1.931,3.797,4.313,4.801,6.979c0.695,1.85,1.094,3.825,1.094,5.891c0,3.04-0.827,5.901-2.272,8.416
	c-3.278,5.693-9.769,9.584-17.228,9.584c-7.414,0-13.873-3.841-17.17-9.479C82.294,141.565,81.447,138.664,81.447,135.582z
	 M162.6,78.885c-0.015-0.201-0.022-0.403-0.037-0.604c1.114,0.387,2.17,0.964,3.118,1.729c0.304,0.246,0.6,0.506,0.881,0.788
	c2.09,2.096,3.279,4.932,3.344,7.979c0.005,0.207-0.009,0.41-0.016,0.615c-0.079,2.821-1.118,5.468-2.982,7.502
	c-1.444,1.583-3.259,2.652-5.239,3.124c0.758-4.772,1.166-9.698,1.166-14.738c0-2.069-0.086-4.113-0.219-6.142
	C162.61,79.055,162.606,78.97,162.6,78.885z M30.39,92.263c-0.001-0.029-0.006-0.058-0.007-0.087
	c-0.111-3.049,0.91-5.947,2.875-8.16c0.419-0.472,0.875-0.891,1.354-1.272c1.003-0.802,2.126-1.396,3.324-1.771
	c-0.009,0.208-0.02,0.417-0.027,0.625c-0.003,0.073-0.002,0.147-0.005,0.22c-0.042,1.149-0.07,2.302-0.07,3.463
	c0,6.084,0.596,11.997,1.688,17.677C34.549,102.207,30.63,97.768,30.39,92.263z"/>
<animateTransform  type="translate" fill="freeze" restart="always" calcMode="linear" accumulate="none" xlink:href="#rightBrow" additive="sum" dur=".2s" to="-1,-3" from="0,0" attributeName="transform" begin="playButton.click">
	</animateTransform>
	<animateTransform  type="translate" fill="freeze" restart="always" calcMode="linear" accumulate="none" xlink:href="#rightBrow" additive="sum" dur=".2s" to="1,3" from="0,0" attributeName="transform" begin="playButton.click+1">
	</animateTransform>
</svg>
