<svg xmlns="http://www.w3.org/2000/svg" viewBox="0 0 677.5 192.1" enable-background="new 0 0 677.5 192.1">
  <title>Frontend Masters Logo</title>
    <defs>
      <linearGradient id="fmg">
          <stop offset="0%"  stop-color="#df2f22"/>
          <stop offset="25%"  stop-color="#df2f22"/>
          <stop offset="100%" stop-color="#820f0a"/>
      </linearGradient>
      <linearGradient id="fmg_vertical" x1="0" x2="0" y1="0" y2="1"
  xmlns:xlink="http://www.w3.org/1999/xlink" xlink:href="#fmg"/>
      <filter id="dropshadow" height="130%">
        <feGaussianBlur in="SourceAlpha" stdDeviation="2"/>
        <feOffset dx="2" dy="2" result="offsetblur"/>
        <feComponentTransfer xmlns="http://www.w3.org/2000/svg">
          <feFuncA type="linear" slope="0.2"/>
        </feComponentTransfer>
        <feMerge>
          <feMergeNode/>
          <feMergeNode in="SourceGraphic"/>
        </feMerge>
      </filter>
    </defs>
    <path fill="url(#fmg_vertical)" style="filter:url(#dropshadow)" d="M68.9 89.9c-5.5 0-10.9.6-16.4 1.6-5.4 1.1-11.1 2.6-17.2 4.8 7.1-12.6 13.7-25.7 19.3-38.9 5.4-12.7 10.3-25.5 15-38.5l-8.3-2.2c1.7-.5 3.4-.9 5-1.4 1.6-.4 3.3-.8 5-1.2l1.5-4.5 1.5-4.5c2.1.6 4.3 1.1 6.5 1.6s4.5.8 6.8 1.1c1.4.2 2.8.3 4.2.3 1.4 0 2.8.1 4.3.1-.5.8-.7 1.2-1.1 2.1 4-.3 7.8-.5 11.6-.5s7.5.2 11.2.5c3.2.3 6.4.7 9.5 1.2 3.1.5 6.2 1.2 9.3 2-2.3 5.4-4.3 10.8-5.8 16.2-.6 2.2-1.2 4.5-1.7 6.7s-.9 4.5-1.3 6.7c-6.3-3.4-12.6-6.5-19-9.4-6.4-2.9-12.9-5.7-19.5-8.2-.8 2.1-1.5 4.2-2.2 6.3-.7 2.1-1.4 4.1-2 6.2-.8 2.5-1.2 3.7-2 6.1 3-.3 5.9-.5 8.8-.6 2.9-.1 5.8-.1 8.7 0 .7 0 1.4.1 2.1.2l2.2.2c-2.2 4.3-3.9 8.6-5.3 13.1-.6 1.8-1.1 3.7-1.5 5.5-.4 1.8-.8 3.7-1.1 5.5-2.5-2.6-5.2-5-8-7.3s-5.8-4.5-8.9-6.5c-1.7 6-3.3 11.9-4.7 17.9-1.3 5.9-2.6 11.9-3.7 17.8h-2.8zM196.7 86.7c-4.8.4-9.5 1.2-14.2 2.4-4.7 1.3-9.4 3-14.2 5.2.5-3.5.6-7 .5-10.3-.1-3.4-.6-6.7-1.3-9.9-3.1.8-6.1 1.2-9.2 1.1-1.5 0-3-.1-4.4-.3l-1.8 8.2-1.7 8.2c-.8-.1-1.6-.2-2.5-.2-.8-.1-1.7-.1-2.7-.1-3.4 0-7.1.4-11.1 1.2-4 .8-8.3 1.9-12.9 3.4 3-4.8 5.7-9.6 8.2-14.4 2.5-4.8 4.8-9.6 6.8-14.5-1.9-1.6-3.4-3.2-4.5-4.8-1.1-1.6-1.9-2.9-2.4-4 1.4.5 2.9 1 4.4 1.5 1.6.5 3.2.9 4.8 1.3.8-2.2 1.6-4.3 2.2-6.4.7-2.1 1.3-4.3 1.9-6.5l.7-2.5-5.6 1.6c-1.9.6-3.7 1.3-5.5 2 .9-1.6 1.6-3.2 2.3-4.7.7-1.5 1.2-3 1.6-4.5.7-2.5 1.1-5 1.1-7.3 0-2.4-.2-4.7-.7-6.9 6.6-.6 12.5-.9 17.7-1 5.1 0 9.7.1 13.6.3 1.8.1 3.9.3 6.3.5 2.3.2 4.7.6 7.1 1.1 2.4.5 4.8 1.1 7.1 1.9 2.3.8 4.4 1.8 6.2 3.1 1.8 1.3 3.3 2.8 4.4 4.6 1.1 1.8 1.7 3.9 1.7 6.3v.2l2.4-1.2c.8-.4 1.6-.9 2.4-1.4-.9 2.5-2 4.9-3.3 7.3-1.4 2.4-2.9 4.8-4.7 7-1.8 2.3-3.8 4.4-5.9 6.5-2.2 2-4.5 3.9-6.9 5.6 2.7 7.4 6.7 14.2 12.1 20.4zm-22.8-45.4c-1.5-.1-3.1-.1-5 0-1.8.1-4 .2-6.3.4-1 3.4-1.9 6.8-2.8 10.1-.9 3.4-1.8 6.7-2.6 10.1 2.3-.2 4.5-.7 6.6-1.3 2.1-.6 4-1.5 5.8-2.6 1.8-1.1 3.3-2.5 4.7-4.2 1.4-1.7 2.5-3.7 3.3-6.1 1.3-.2 2.5-.3 3.7-.5 1.2-.2 2.5-.3 3.8-.5v-.1c-.5-.8-1-1.5-1.6-2.1-.6-.6-1.3-1.2-2.1-1.6-.8-.4-1.8-.8-3.1-1-1.2-.3-2.7-.5-4.4-.6zM261.5 38.4c-1.1.8-2.1 1.6-3.1 2.5-1 .9-1.9 1.8-2.8 2.7 2.5.5 4.9 1.4 7.1 2.6 2.2 1.2 4.1 2.7 5.6 4.4 1.6 1.8 2.8 3.8 3.6 6.2.8 2.3 1.1 4.9.8 7.8-.3 3.2-1.1 6.1-2.4 8.7-1.3 2.6-3 4.9-5.1 6.9-2.1 2-4.5 3.8-7.3 5.2-2.8 1.5-5.7 2.7-8.9 3.7s-6.5 1.7-9.9 2.2c-3.4.5-6.9.7-10.3.7h-3.7c-1.3 0-2.5-.1-3.7-.2-1.2-.1-2.3-.2-3.3-.3-1-.2-1.8-.3-2.5-.6 1-.7 2-1.4 2.9-2.1.9-.7 1.7-1.5 2.5-2.2-2.7-.5-5.2-1.3-7.5-2.4-2.3-1.1-4.2-2.5-5.7-4.1-1.5-1.7-2.6-3.7-3.2-6-.6-2.3-.6-5-.1-8 .7-3.5 1.9-6.7 3.6-9.5 1.7-2.8 3.8-5.3 6.3-7.4 2.5-2.1 5.2-3.9 8.2-5.4s6.2-2.7 9.5-3.6c3.3-.9 6.7-1.6 10.2-1.9 3.5-.4 6.9-.5 10.2-.4 1.4 0 2.9.1 4.4.2 1.4-.1 3 .1 4.6.3zm-5.7 23c.2-1.4.1-2.6-.1-3.7s-.6-2.1-1.1-3c-.5-.9-1.2-1.6-2-2.3-.8-.6-1.7-1.2-2.6-1.7-.5.8-1 1.7-1.4 2.5-.4.8-.8 1.7-1.2 2.6-1.4-.5-2.7-.8-4-1-1.2-.2-2.4-.3-3.5-.3-1.9 0-3.9.2-5.9.8-2 .6-3.9 1.5-5.7 2.6-1.7 1.2-3.3 2.6-4.5 4.3-1.3 1.7-2.1 3.6-2.4 5.7-.2 1.1-.2 2.1 0 3.1s.5 2 1 2.9c.5.9 1.1 1.8 1.8 2.7.7.8 1.6 1.7 2.4 2.4.5-1 1-2 1.3-3 .3-1 .6-2 .9-3.1 1.6.8 3.1 1.4 4.7 1.7 1.5.3 3 .5 4.3.5 2 0 4.1-.3 6.1-.9 2-.6 3.9-1.5 5.6-2.7 1.7-1.2 3.1-2.6 4.2-4.3 1.1-1.7 1.8-3.6 2.1-5.8zM346 41.8c-3.5 4.1-6.2 8.5-8.1 13.2-1.9 4.7-2.9 9.7-2.9 15.1 0 2.8.2 5.6.7 8.6.5 2.9 1.3 5.9 2.4 9.1-2.2.1-4.4.3-6.7.6-2 .3-4.1.7-6.5 1.2-2.4.6-4.7 1.3-7 2.3-.7-2-1.5-3.8-2.4-5.6-.9-1.8-1.7-3.5-2.7-5.1-.9-1.6-1.8-3.1-2.7-4.5-.9-1.4-1.8-2.7-2.6-3.9-2-2.7-4-5.2-6-7.4l-.1-.1s-.1-.1-.1-.2l-.1-.2c0 2 0 4-.1 5.9-.4 7-1.8 14-4.3 20.8-4.5-1.4-9.2-2.1-14.1-2.1-1.6 0-3.2.1-4.8.2-1.6.1-3.2.4-4.9.7 4.2-4.1 7.4-8.6 9.7-13.3 2.3-4.7 3.7-9.8 4.1-15.4.1-1.8.2-3.7.1-5.7-.1-1.9-.2-3.9-.5-6-1.5-1.3-3.2-2.6-4.9-3.9-1.8-1.3-3.6-2.7-5.6-4.1 2.3.3 4.5.5 6.6.5 2.1 0 4.2-.2 6.3-.6 2.1-.4 4.2-.9 6.4-1.6 2.2-.7 4.4-1.6 6.8-2.7 6 11.2 12.3 22.3 18.8 33.2-.3-2-.5-4.1-.6-6-.1-2-.2-3.9-.1-5.9.1-4.2.7-8.3 1.7-12.3 1-3.9 2.5-7.7 4.6-11.4 5.8 3.9 12.4 6.1 19.6 6.6zM388.4 89h-3.2c-3.5 0-6.8.2-10.1.6-3.3.4-6.5 1.1-9.6 2l-.2-2.1-.1-2.1c-.3-6.6 0-12.9.8-18.9.7-6 2-11.9 3.9-17.5-4.1.4-8.1 1.1-12.1 2-4 .9-7.9 2.2-11.7 3.7.9-3.5 1.3-7.1 1.3-10.6 0-1.6-.1-3.3-.3-4.9-.2-1.6-.5-3.3-.9-4.8 4.6 1 9.2 1.7 13.9 2.3 4.7.6 9.5 1 14.4 1.1l1.9-3.9 2.1-3.8c-.1 2.6-.1 5.1 0 7.7h1.1c3.2 0 6.4-.2 9.5-.5 3.1-.3 6.3-.7 9.5-1.3-.5 1-.9 2.1-1.2 3.2-.3 1.1-.4 2.5-.2 4.1.1.9.3 1.9.5 3 .3 1.1.7 2.3 1.2 3.7-2.9-.6-5.9-1-9.1-1.3-3.2-.3-6.5-.4-10-.4h-.6c.6 6.5 1.6 12.9 3.1 19.3 1.4 6.6 3.4 13 6.1 19.4zM431.1 89.1h-6.5c-2.1 0-4.2 0-6.3.1-2.1.1-4.2.2-6.2.4s-4.1.6-6.1 1.1c1.3-5.4 2.2-10.7 2.5-16.1.4-5.3.3-10.7-.3-16-.3-2.4-.6-4.9-1-7.3-.4-2.4-1-4.9-1.6-7.3-2.3-.2-3.5-.3-5.8-.6l2.6-.8 2.6-.7c-.2-.6-.4-1.3-.5-1.9-.2-.6-.4-1.3-.6-2 1.5.4 3 .8 4.5 1.1 1.5.3 3 .6 4.6.9 4.7-1 9.3-1.9 14-2.5 4.7-.6 9.4-1 14.3-1.2 2.1-.1 4.2-.1 6.3-.1 2.1 0 4.2.1 6.4.2-.5 4.4-.3 9 .5 13.6.3 1.7.7 3.4 1.1 5.1-9.8-3.6-20.4-6.5-30.7-8.3 0 2.1.1 4.1.2 6.2.1 2.1.3 4.2.5 6.2 2.5-.6 5-1 7.6-1.3 2.5-.3 5.1-.5 7.6-.6-.3 2.2-.2 4.4.1 6.6.1.9.3 1.7.5 2.6.2.9.5 1.7.8 2.6-2.7-1.1-5.3-2.1-8-2.9-2.7-.8-5.4-1.6-8.1-2.2.3 2.5.7 5.1 1.2 7.7.5 2.6 1 5.3 1.6 8 9.9-1.1 20.3-3.6 29.7-6.9 0 1.8 0 3.6.2 5.3.1 1.7.3 3.5.6 5.3.3 1.6.6 3.2 1.1 4.8.4 1.6 1 3.2 1.6 4.8-5.2-1.2-10.4-2.2-15.5-3-5.1-.8-10.3-1.5-15.5-2 0 .1.1.3.1.5-.2.3-.1.5-.1.6zM533.1 29.9c-2.5 5.4-4.1 11.1-4.7 17-.6 5.9 0 12.2 1.7 18.9.9 3.5 2.1 7 3.6 10.6 1.5 3.6 3.4 7.4 5.7 11.3-2.4.1-4.9.3-7.3.7-2.1.3-4.4.8-6.9 1.5s-4.8 1.6-7.1 2.8c-1.4-2.4-2.9-4.7-4.5-6.9-1.5-2.2-3.1-4.3-4.6-6.2-1.5-1.9-3-3.8-4.5-5.4-1.5-1.7-2.9-3.2-4.2-4.6-3.1-3.3-6.1-6.2-9-8.7l-.2-.2-.2-.2-.2-.3c.7 2.4 1.3 4.7 1.8 7 1.8 8.4 2.4 16.7 1.8 24.9-5.6-1.7-11.1-2.6-16.6-2.6-1.8 0-3.5.1-5.3.2-1.8.2-3.5.4-5.3.8 3.4-4.8 5.7-10 6.8-15.5s1-11.6-.2-18.1c-.4-2.2-1-4.4-1.7-6.7s-1.5-4.6-2.4-7c-2.1-1.4-4.3-2.8-6.7-4.3-2.4-1.4-4.9-2.9-7.5-4.4 2.6.3 5.1.3 7.4.2 2.3-.1 4.6-.5 6.8-1.1 2.2-.6 4.4-1.3 6.6-2.3 2.2-1 4.4-2.2 6.7-3.6 10.5 13.2 21.1 26.3 31.7 39.3-1-2.5-1.9-4.9-2.7-7.3-.8-2.4-1.4-4.8-2-7.2-1.2-5.2-1.9-10.2-2.1-15.1-.2-4.9.3-9.6 1.4-14.2 7.7 4.3 15.7 6.6 23.9 6.7zM624.6 41.7c2.1 4.7 3.5 9.2 4.2 13.7.7 4.5.7 8.7 0 12.7s-1.9 7.6-3.9 10.8c-1.9 3.3-4.4 6-7.4 8.3-3 2.3-6.4 4.1-10.3 5.3-3.9 1.2-8.1 1.8-12.7 1.8-3 0-6.2-.4-9.6-1.2-3.4-.8-6.9-2.2-10.4-4.2-3.1.4-6.3 1-9.5 1.8s-6.5 1.8-9.8 3.1c.7-9.4.4-19.4-.5-28.7-.9-9.7-2.8-20-5.6-29.4-1 .6-2 1.4-3 2.1-1 .8-2 1.7-2.9 2.6-.1-.9-.3-1.8-.5-2.7-.2-.9-.4-1.7-.7-2.6-1.2-4.3-2.9-8.3-5.2-12.1-2.2-3.7-4.9-7.2-8.1-10.4 1.1-.5 2.4-1 4-1.5s3.2-1 5-1.4c1.8-.5 3.6-.9 5.5-1.3s3.7-.8 5.5-1.1c1.8-.3 3.5-.6 5.1-.8 1.6-.2 3-.4 4.1-.5 4.8-.5 9.4-.5 13.9-.1 4.5.5 8.8 1.3 12.9 2.6s8 3 11.6 5.1c3.6 2.1 6.9 4.5 9.9 7.2s5.6 5.7 7.8 9 4 6.8 5.2 10.4l.6 1.8c.2.6.4 1.2.5 1.8.7-.4 1.4-.7 2.1-1 1-.4 1.7-.7 2.2-1.1zm-21.7 6c-1.4-2.4-3.1-4.4-4.9-6.2-1.8-1.8-3.7-3.3-5.7-4.6-2-1.3-4-2.3-6.1-3.2-2.1-.8-4.1-1.5-6.1-2s-3.9-.9-5.7-1c-1.8-.2-3.5-.3-5.1-.4 2.5 9 5.2 17.9 7.9 26.7 2.5 8.1 5.1 16.2 7.7 24.2 3.2-1.1 6-2.6 8.4-4.5 2.4-1.9 4.3-4.3 5.5-7 1.2-2.8 1.8-6 1.6-9.6s-1.1-7.7-3-12c.8 0 1.6-.1 2.5-.1 1.1-.1 2.1-.2 3-.3zM177.9 105.2c-2.1 3-3.9 5.9-5.5 8.6-1.6 2.8-3 5.4-4.2 8-1.2 2.6-2.2 5-3 7.3-.8 2.3-1.5 4.6-1.9 6.7-.9 4.1-1.3 7.8-1.1 11.2.2 3.4.8 6.4 1.7 9.2.9 2.8 2.1 5.2 3.6 7.4s3 4.1 4.6 5.8c-1.5-.1-2.9-.1-4.3-.1s-2.7 0-3.9.1c-1.9.1-3.7.3-5.5.6-1.8.3-3.5.7-5.3 1.1-1.8.5-3.6 1-5.4 1.7-1.9.7-3.8 1.5-6 2.3-.9-4.9-1.3-9.9-1.3-15 .1-5.1.6-10.3 1.6-15.6-3.6 4.6-7 9.4-10 14.4s-5.6 10.3-7.7 16c-.4 0-1.4.1-2.9.3-1.5.1-3.3.4-5.5.7-2.2.3-4.5.8-7 1.3s-5 1.2-7.5 2.1c1.1-6.1 1.5-11.8 1.2-17-.3-5.2-1-10.2-2.3-14.9-4.6 11.7-9.6 21.7-16.1 32.5-6.9-2.4-14.6-3.2-23.5-2.4-1.5.1-3 .3-4.5.6-1.5.2-3.1.5-4.7.9 7.9-6.3 15.7-14.6 21.5-22.7 5.3-7.4 10.2-17.2 12.8-26.1.7-2.4 1.3-4.8 1.9-7.2-2.1-2.8-4.4-5.6-6.7-8.3-2.4-2.8-4.9-5.6-7.6-8.6.6.2 1.3.3 2.1.6.9.2 1.9.4 3.1.7 1.2.2 2.6.4 4.1.5 1.5.1 3.2.1 5 .1 3.2-.1 6.9-.5 11-1.3s8.6-2.2 13.5-4.1c1.3 4.3 2.4 9.1 3.5 14.2.4 2.2.9 4.6 1.4 7.2.5 2.6.9 5.4 1.3 8.3.4 2.9.7 6 1 9.3.3 3.2.4 6.6.5 10 3.4-5.3 6.6-10.2 9.6-14.7s5.7-8.8 8.3-12.9c2.6-4.1 4.9-8 7.1-11.8 2.1-3.8 4.1-7.7 5.8-11.6 2 1.3 4.3 2.2 6.8 2.9 2.5.7 5 1.1 7.6 1.4 2.5.3 4.9.4 7.2.4 2.1-.1 4-.1 5.6-.1zM260.4 148.6c-1.5.7-3 1.3-4.5 1.9-1.5.6-3 1.2-4.6 1.7 1.3 2.6 2.7 5.1 4.3 7.4 1.6 2.4 3.2 4.7 5.1 7-5.3.1-10.3.7-15.2 1.7-4.9 1-9.7 2.5-14.6 4.5.3-.7.6-1.4.8-2.2.2-.8.4-1.6.5-2.5.2-1.5.2-3.2.1-5-.1-1.8-.4-3.7-.8-5.7-1.7.3-3.4.5-5 .6-1.7.2-3.3.3-4.9.3-2.7.1-5.4 0-7.9-.2-2.5-.3-5-.7-7.3-1.3-1 2.4-1.9 4.8-2.8 7.3-.9 2.5-1.8 5-2.7 7.6-1.5-.6-3.2-1.2-5-1.7-1.6-.4-3.6-.7-5.8-1-2.3-.3-4.8-.3-7.7-.2-2.3.1-4.7.4-7.3.9-2.6.5-5.3 1.2-8.2 2.3 2.9-2.4 5.7-4.8 8.3-7.1 2.6-2.4 4.9-4.7 7-6.8 2.1-2.2 4-4.2 5.7-6.1 1.7-1.9 3.1-3.5 4.2-4.8-.7-1-1.3-2.1-1.9-3.2-.6-1.2-1-2.4-1.4-3.8 1.1.5 2.2 1 3.4 1.4l3.4 1.2v-.1c2.2-2.9 4.4-5.8 6.7-8.6s4.6-5.5 7.1-8.1c-.3-.9-.6-1.8-1-2.9-.4-1.1-.9-2.2-1.4-3.4-.5-1.2-1-2.4-1.6-3.6-.6-1.2-1.1-2.3-1.7-3.4 2.8.7 5.7 1.2 8.6 1.6 3 .4 6.1.6 9.3.7 1.9-1.5 3.9-2.8 5.9-4 2-1.2 4.1-2.3 6.2-3.3-.9 1.1-1.7 2.3-2.6 3.5l-2.5 3.6c1.8-.1 3.5-.3 5.3-.5 1.8-.2 3.5-.5 5.3-.8.7 4.3 1.5 8.5 2.5 12.6s2.2 8.1 3.6 12.1c1.6-.8 3.2-1.6 4.8-2.5l4.7-2.7c.6 3 1.4 5.7 2.3 8.3.8 2.7 2 5.1 3.3 7.3zm-32.7-4.2c-1.9-5.3-4.3-10.9-7.2-16.6-1.6 2.8-3.1 5.7-4.6 8.6-1.5 3-3 6.1-4.5 9.3h4.8c1.9-.1 3.9-.2 5.8-.4 1.8-.2 3.7-.5 5.7-.9zM335 141.6c.1.5.1 1 .1 1.5v1.4c0 2.4-.5 4.7-1.4 6.8-1 2.1-2.3 4.1-3.9 5.8-1.7 1.8-3.7 3.4-6 4.8s-4.8 2.6-7.5 3.6-5.5 1.8-8.5 2.3c-3 .5-5.9.8-8.9.9-2.8 0-5.4 0-8-.1-2.6-.1-5-.2-7.3-.1-1.8 0-3.4.2-5 .4s-3.1.7-4.4 1.3c-.8-3.1-1.7-6-2.7-8.6-1-2.6-1.9-4.7-2.7-6.6-1-2.1-2-4-3-5.7 3.3 1.4 6.6 2.4 10 3.2 3.4.8 6.6 1.4 9.7 1.7 3.1.4 5.9.6 8.5.7 2.6.1 4.7.1 6.4.1 1.9 0 3.8-.1 5.8-.3 2-.2 3.9-.5 5.9-.9-.5-.5-1-1-1.5-1.4-.5-.4-1-.7-1.4-1-.5-.3-1-.5-1.5-.7-.8-.3-1.9-.6-3.4-.9-1.4-.3-3-.6-4.7-1-1.7-.3-3.6-.7-5.5-1.1-1.9-.4-3.9-.9-5.8-1.4-1.9-.5-3.7-1.2-5.4-1.9-1.7-.7-3.2-1.5-4.5-2.5-1-.7-1.9-1.6-2.5-2.4-.6-.9-1.1-1.8-1.4-2.7-.3-.9-.5-1.9-.6-2.8-.1-.9-.1-1.8-.1-2.7-1 .3-1.9.7-2.7 1-.8.3-1.5.6-2.1.8l-1.8.7c1.3-2.5 2.9-4.8 4.8-6.7 2-1.9 4.1-3.6 6.5-5.1 2.3-1.4 4.8-2.6 7.4-3.6 2.6-1 5.1-1.8 7.7-2.4 5.9-1.5 12.1-2.4 18.9-2.6 2.1 0 4.3-.1 6.7-.2 2-.1 4.4-.3 7-.5 2.6-.2 5.4-.6 8.2-1.1-.9 1.1-1.6 2.3-2.1 3.6-.5 1.3-1 2.6-1.3 3.9-.3 1.3-.5 2.6-.7 3.9-.1 1.3-.2 2.4-.2 3.5v1.9c0 .6.1 1.1.1 1.5.1.5.1.9.2 1.3-4.9-1.8-9.6-3.1-14.3-3.8-4.6-.7-9.1-1-13.4-1-1.5 0-2.9.1-4.2.2-1.3.1-2.7.2-4 .4.2 1.1.7 2 1.5 2.8.8.7 1.5 1.3 2.3 1.8.9.5 1.9.9 3 1.2 2.1.5 4.4 1.2 6.9 2s5 1.7 7.4 2.9c2.5 1.2 4.9 2.5 7.2 4.1 2.3 1.6 4.3 3.4 6.1 5.5 1.1-.7 2.2-1.5 3.2-2.4 1-1.3 2-2.2 2.9-3.3zM384.5 165.3c-.6 0-1.2 0-1.8-.1l-1.8-.1c-3.9-.1-7.6.1-11.2.5-3.6.4-7.2 1-10.7 2-.1-.7-.1-1.4-.1-2.1 0-.7 0-1.4-.1-2-.2-6.6.2-12.9 1.2-18.9.9-6 2.5-11.8 4.6-17.4-4.6.4-9.1 1-13.6 1.9s-8.9 2.1-13.1 3.6c1-3.5 1.6-7.1 1.6-10.6 0-1.6-.1-3.3-.3-4.9-.2-1.6-.5-3.3-1-4.8 5.1 1 10.3 1.8 15.5 2.4 5.3.6 10.6 1.1 16.1 1.3.7-1.3 1.5-2.6 2.2-3.8.8-1.3 1.6-2.5 2.5-3.8-.1 2.6-.2 5.1-.1 7.7h1.2c3.6 0 7.1-.1 10.6-.3 3.5-.2 7-.6 10.6-1.1-.6 1-1 2-1.4 3.2-.4 1.1-.5 2.5-.4 4.1.1.9.2 1.9.5 3s.7 2.3 1.2 3.7c-3.2-.6-6.6-1.1-10.2-1.5-3.6-.4-7.3-.6-11.1-.6h-.7c.5 6.5 1.5 12.9 3 19.3 1.8 6.5 4 12.9 6.8 19.3zM431.9 166.5l-7.2-.2c-2.4-.1-4.7-.1-7-.1s-4.6.1-6.9.3c-2.3.2-4.5.5-6.7.9 1.6-5.3 2.6-10.6 3.2-15.9.5-5.3.6-10.6.1-16-.2-2.4-.6-4.9-1-7.3-.4-2.4-1-4.9-1.6-7.3l-6.5-.7c1-.2 2-.5 2.9-.7 1-.2 2-.4 2.9-.7-.2-.7-.4-1.3-.6-1.9-.2-.6-.4-1.3-.6-2 1.7.4 3.4.8 5 1.2 1.7.4 3.4.7 5.1 1 5.2-.9 10.4-1.5 15.7-1.9 5.2-.4 10.5-.6 16-.5 2.3 0 4.7.1 7 .3 2.3.1 4.7.3 7.1.5-.6 4.3-.6 8.8.1 13.5.3 1.7.6 3.4 1.1 5.1-11.3-3.8-22.3-6.9-34-9.6 0 2.1 0 4.1.1 6.2.1 2.1.2 4.1.4 6.2 2.8-.5 5.6-.8 8.5-1 2.8-.2 5.7-.3 8.5-.3-.3 2.2-.4 4.4-.1 6.5.1.9.3 1.7.5 2.6.2.9.5 1.7.9 2.6-2.9-1.2-5.9-2.3-8.8-3.2-3-.9-5.9-1.8-9-2.5.3 2.5.7 5 1.1 7.7.4 2.6 1 5.3 1.6 8 11.3-.8 22.2-3.1 33.2-5.6-.1 1.8-.1 3.5 0 5.2.1 1.7.2 3.5.5 5.2.3 1.6.6 3.2 1 4.8.4 1.6 1 3.2 1.6 4.8-5.8-1.4-11.5-2.6-17.1-3.6-5.7-1-11.4-1.9-17.2-2.5 0 .1 0 .3.1.5 0 .1 0 .3.1.4zM553.5 170.6c-4.9 0-9.6.4-14 1.3s-8.7 2.2-12.8 4c-1.1-3.4-2.5-6.7-4.2-10-1.7-3.3-3.6-6.5-5.9-9.6-2.9.6-6 .8-9.2.6-1.6-.1-3.2-.2-4.8-.5l1.8 7.6 1.9 7.6-2.7-.4c-.9-.1-1.9-.2-2.9-.3-3.6-.2-7.4-.1-11.3.4-3.9.5-8 1.2-12.2 2.3 1.1-4.1 1.8-8.3 2.3-12.6.5-4.2.7-8.5.7-12.9-2.7-1.5-5-3-6.9-4.4-1.9-1.4-3.3-2.6-4.3-3.6 1.7.5 3.5.9 5.4 1.4 1.8.4 3.7.8 5.6 1.2-.1-1.9-.3-3.8-.5-5.8-.2-1.9-.5-3.8-.9-5.8l-.4-2.3-5.2 1.5c-1.7.5-3.3 1.1-4.9 1.8.2-1.4.3-2.8.3-4.2 0-1.4-.1-2.7-.3-4-.4-2.2-1.1-4.4-2.1-6.5-1-2.1-2.2-4.1-3.7-6 6.7-.8 12.7-1.3 18.1-1.6 5.4-.2 10.2-.3 14.4-.3 2 0 4.3.1 6.8.3 2.5.1 5.2.4 7.9.8 2.8.4 5.5.9 8.3 1.6 2.8.7 5.4 1.6 7.9 2.8 2.5 1.2 4.7 2.7 6.7 4.4 2 1.7 3.6 3.8 4.7 6.2v.2c.7-.4 1.3-.8 1.9-1.2.6-.4 1.2-.9 1.8-1.4.2 2.5.2 4.9-.2 7.3-.3 2.4-.9 4.7-1.7 6.9-.8 2.2-1.9 4.3-3.3 6.2-1.3 2-2.9 3.7-4.7 5.3 6.7 8.2 14.6 15.6 22.6 21.7zm-44.9-45.3h-5.2c-1.9.1-4.1.2-6.5.4.5 3.1 1 6.3 1.6 9.4.5 3.1 1.1 6.2 1.8 9.3 2.3-.2 4.5-.5 6.4-1.1 1.9-.5 3.6-1.3 4.9-2.4 1.4-1 2.4-2.4 3.1-3.9s.9-3.5.7-5.7l3.7-.5c1.2-.1 2.5-.3 3.7-.5v-.1c-.9-.8-1.7-1.5-2.6-2.1-.9-.6-1.9-1.1-2.9-1.5-1.1-.4-2.3-.7-3.7-1-1.4-.1-3.1-.2-5-.3zM633.7 146.2c.4.8.7 1.5.9 2.2.3.7.5 1.4.7 2.1 1.2 3.6 1.7 7 1.6 10.1-.1 3.1-.8 5.8-2 8.3-1.2 2.5-2.9 4.6-5 6.4-2.2 1.8-4.7 3.2-7.6 4.3-2.9 1.1-6 1.8-9.5 2.2-3.4.4-7 .4-10.7 0-3.5-.3-6.8-.8-10.1-1.3-3.3-.6-6.3-1-9.2-1.2-2.2-.2-4.2-.2-6.1-.1-1.9.1-3.5.5-5 1.2-2.5-4.5-5-8.6-7.5-12.3-2.5-3.7-4.6-6.8-6.5-9.4-2.2-3-4.4-5.7-6.4-8.1 4.7 2.2 9.4 4 14 5.5 4.6 1.4 8.9 2.6 13 3.5 4.1.9 7.7 1.6 11 2 3.3.4 5.9.7 8.1.9 2.4.2 4.7.2 7.1.2 2.3-.1 4.6-.3 6.9-.7-.8-.8-1.7-1.6-2.5-2.2-.8-.7-1.6-1.2-2.2-1.6-.8-.5-1.5-.9-2.2-1.2-1.2-.5-2.7-1.1-4.6-1.7-1.9-.6-4-1.2-6.3-1.9s-4.8-1.4-7.4-2.2c-2.6-.8-5.2-1.7-7.9-2.6-2.6-1-5.2-2-7.6-3.2-2.5-1.2-4.7-2.4-6.8-3.8-1.6-1.1-3-2.3-4.2-3.6-1.2-1.3-2.2-2.6-3.1-3.9s-1.6-2.6-2.1-3.9c-.6-1.3-1-2.5-1.4-3.7-1.1.4-2.1.8-2.9 1.2-.9.4-1.6.7-2.2.9-.7.3-1.1.5-1.8.9.4-3.4 1.3-6.3 2.8-8.9 1.5-2.6 3.4-4.8 5.6-6.7 2.2-1.9 4.7-3.5 7.4-4.7 2.7-1.3 5.5-2.3 8.2-3.1 6.5-1.9 13.7-3 21.8-3.1 2.5.1 5.2 0 8-.1 2.4-.1 5.2-.3 8.2-.6 3.1-.3 6.2-.8 9.5-1.4-.5 1.6-.8 3.4-.8 5.3s.1 3.8.4 5.8c.3 1.9.6 3.9 1.1 5.8.5 1.9 1 3.6 1.5 5.2.3 1.1.7 2 1 2.9.3.9.6 1.6.9 2.2.3.7.6 1.4.9 2-6.9-3-13.4-5.2-19.4-6.5-6-1.3-11.7-2-17-2.2-1.8-.1-3.5-.1-5.1 0-1.6.1-3.2.1-4.8.3.8 1.6 1.9 2.9 3.2 4 1.3 1.1 2.5 2 3.7 2.7 1.4.8 2.8 1.5 4.3 2 2.9.9 6 2 9.5 3.3 3.4 1.3 7 2.9 10.6 4.8s7.3 4.1 10.9 6.6c3.6 2.5 7 5.5 10.3 8.7 1-1 1.9-2.1 2.7-3.3.8-1.4 1.5-2.8 2.1-4.3z"/></svg>